<svg id="Layer_1" data-name="Layer 1" xmlns="http://www.w3.org/2000/svg" viewBox="0 0 554 140.67"><defs><style>.cls-1{fill:#fff;}</style></defs><title>houston_simple_white</title><path class="cls-1" d="M464.44,61.42l28.19,37h10.91V40.21H490.9V76.07L463.61,40.21H451.79V98.46h12.65ZM59.42,75.1H83.05V98.46H95.83V40.21H83.05v23H59.42v-23H46.64V98.46H59.42ZM554,0V140.67H0V0H554ZM541.35,12.64H12.64V128H541.35ZM215.78,99.22c15.68,0,25.56-8.64,25.56-26.26V40.14H228.49V73.51c0,9.26-4.77,14-12.58,14s-12.57-4.9-12.57-14.37v-33H190.56V73.38C190.56,90.51,200.09,99.22,215.78,99.22ZM112.28,69.44V69.3c0-16.58,13-30.12,31-30.12s30.81,13.4,30.88,30v.07c0,16.58-13.06,30.12-31,30.12S112.28,86,112.28,69.44Zm13.33-.21c0,10,7.32,18.31,17.62,18.31s17.48-8.15,17.48-18.1v-.07c0-10-7.32-18.31-17.62-18.31s-17.48,8.15-17.48,18.1ZM282.24,87.89c-6.63,0-12.16-2.77-17.41-7l-7.6,9A37.17,37.17,0,0,0,282,99.22c12.57,0,21.35-6.5,21.35-18v-.13c.2-10.16-6.5-14.38-18.31-17.49-10.09-2.55-12.58-3.8-12.58-7.66v-.14c0-2.84,2.56-5,7.46-5s9.95,2.15,15.13,5.74l6.64-9.67A33.47,33.47,0,0,0,280,39.38c-11.88,0-20.38,7-20.38,17.55v.14c0,11.54,7.6,14.79,19.28,17.83,9.74,2.48,11.74,4.14,11.74,7.39v.14C290.67,85.81,287.49,87.89,282.24,87.89Zm91.13-18.45V69.3c0-16.58,13.06-30.12,31-30.12s30.88,13.4,30.88,30v.07c0,16.58-13.06,30.12-31,30.12S373.37,86,373.37,69.44Zm13.41-.21c0,10,7.32,18.31,17.62,18.31s17.48-8.15,17.48-18.1v-.07c0-10-7.33-18.31-17.62-18.31s-17.48,8.15-17.48,18.1ZM331.92,52V98.46H344.7V52h17.69V40.21H314.16V52h17.76Z"/></svg>