<?xml version="1.0" encoding="UTF-8"?>
<svg width="200px" height="81px" viewBox="0 0 200 81" version="1.1" xmlns="http://www.w3.org/2000/svg" xmlns:xlink="http://www.w3.org/1999/xlink">
    <!-- Generator: Sketch 52.1 (67048) - http://www.bohemiancoding.com/sketch -->
    <title>Logo-light</title>
    <desc>Created with Sketch.</desc>
    <defs>
        <polygon id="path-1" points="0.215039414 0.111245466 4.08288627 0.111245466 4.08288627 3.97885549 0.215039414 3.97885549"></polygon>
        <polygon id="path-3" points="0 0.165302696 3.86796872 0.165302696 3.86796872 4.0330548 0 4.0330548"></polygon>
        <polygon id="path-5" points="0 80.1789601 199.992745 80.1789601 199.992745 0.241837969 0 0.241837969"></polygon>
    </defs>
    <g id="Logo-light" stroke="none" stroke-width="1" fill="none" fill-rule="evenodd">
        <g>
            <g id="Group-3" transform="translate(10.882709, 0.130593)">
                <mask id="mask-2" fill="white">
                    <use xlink:href="#path-1"></use>
                </mask>
                <g id="Clip-2"></g>
                <path d="M0.390471584,2.84931076 C-0.0533010883,1.87833132 0.373784764,0.731051995 1.34524788,0.286795647 C2.31574365,-0.157218863 3.46326481,0.270108827 3.90752116,1.24084643 C4.35129383,2.21182588 3.9237243,3.35934704 2.95322854,3.80311971 C1.98200726,4.24737606 0.834727932,3.82029021 0.390471584,2.84931076" id="Fill-1" fill="#EBF4F6" mask="url(#mask-2)"></path>
            </g>
            <path d="M19.5887304,12.8045707 C19.7511423,12.8980707 19.9170754,12.9895707 20.0887304,13.0775707 C19.9263184,12.9770707 19.762586,12.8775707 19.5887304,12.8045707" id="Fill-4" fill="#F70303"></path>
            <path d="M20.77289,13.902757 C20.5765175,13.4722854 20.2495526,13.1467715 19.8633374,12.9366143 C19.7692624,12.8940508 19.6780895,12.8497944 19.5888513,12.8045707 C18.5421765,12.2720435 17.8853446,11.5479807 18.4971947,10.1259734 L18.4809915,10.1334704 C18.8188392,9.45970979 18.8693833,8.64931076 18.5315357,7.91073761 C17.9395163,6.61593712 16.4098912,6.04640871 15.1150907,6.63818622 C13.8207739,7.2304474 13.2507618,8.76007255 13.8427811,10.054873 C14.1806288,10.7934462 14.8263362,11.2853446 15.5574123,11.4705925 L15.5404837,11.4783313 C17.1003386,11.9719226 17.166844,13.0156953 16.826578,14.2367352 C16.8309311,14.2403628 16.8214994,14.2338331 16.826578,14.2367352 C16.7061427,14.6918742 16.7346796,15.1919952 16.9455623,15.653422 C17.4289964,16.7095284 18.6776058,17.1748247 19.7344377,16.6911487 C20.7910278,16.2081983 21.2563241,14.9591052 20.77289,13.902757" id="Fill-6" fill="#EBF4F6"></path>
            <path d="M31.2434825,20.7526239 C31.6855623,20.5843047 32.0316324,20.279347 32.2664571,19.9078839 C32.3155502,19.816711 32.3653688,19.7284401 32.4161548,19.6423458 C33.0156711,18.6329141 33.7810883,18.024208 35.1600484,18.7274728 L35.1540024,18.7110278 C35.803821,19.0919226 36.6093833,19.1951874 37.3682709,18.9061911 C38.6991052,18.3997823 39.3670617,16.9103023 38.860653,15.5799516 C38.3540024,14.2493591 36.8645224,13.5814027 35.5341717,14.0875695 C34.7752842,14.3768077 34.2420314,14.9891415 34.009867,15.7064329 L34.0030955,15.6890206 C33.4088996,17.2135671 32.3631923,17.2116324 31.1670617,16.792769 C31.1629504,16.7971221 31.1702056,16.7879323 31.1670617,16.792769 C30.7203869,16.6428295 30.2197823,16.6387183 29.7455381,16.8193712 C28.6601693,17.2329141 28.1145828,18.4486336 28.5281258,19.5349698 C28.9414268,20.6205804 30.1578718,21.165925 31.2434825,20.7526239" id="Fill-8" fill="#EBF4F6"></path>
            <path d="M13.4695768,24.8733011 C13.0405562,25.0720919 12.716977,25.4007497 12.5087545,25.7881741 C12.4669166,25.8824909 12.4231439,25.9741475 12.378162,26.0633857 C11.8521644,27.1132044 11.1314873,27.7743894 9.70585248,27.1702781 L9.71359129,27.1864813 C9.03813785,26.852503 8.22725514,26.8065538 7.49061669,27.1485127 C6.19944377,27.7477872 5.63837969,29.2810399 6.23765417,30.571971 C6.83692866,31.8633857 8.37018138,32.4244498 9.66135429,31.8251753 C10.3979927,31.4827328 10.8862636,30.834607 11.0671584,30.1028053 L11.0751391,30.1192503 C11.5600242,28.5567352 12.6030713,28.4846675 13.8262878,28.8179202 C13.8296735,28.8130834 13.8233857,28.822757 13.8262878,28.8179202 C14.2821524,28.9356953 14.7820314,28.9042563 15.2420073,28.6907134 C16.2954534,28.2009915 16.7537364,26.9499637 16.2642563,25.8955502 C15.7750181,24.842104 14.523023,24.3840629 13.4695768,24.8733011" id="Fill-10" fill="#EBF4F6"></path>
            <g id="Group-14" transform="translate(0.000000, 29.876663)">
                <mask id="mask-4" fill="white">
                    <use xlink:href="#path-3"></use>
                </mask>
                <g id="Clip-13"></g>
                <path d="M2.73823458,3.85750907 C1.7670133,4.30152358 0.619975816,3.87419589 0.175719468,2.90321644 C-0.268778718,1.932237 0.15879081,0.784957678 1.13001209,0.34070133 C2.10099154,-0.103071342 3.24827086,0.324256348 3.69252721,1.29523579 C4.13629988,2.26621524 3.70921403,3.41349456 2.73823458,3.85750907" id="Fill-12" fill="#EBF4F6" mask="url(#mask-4)"></path>
            </g>
            <path d="M42.0293591,11.5143652 C43.0005804,11.0703507 44.1473761,11.4976784 44.5913906,12.468416 C45.0361306,13.4396372 44.6085611,14.5869166 43.6370979,15.0309311 C42.6663603,15.4749456 41.519081,15.0478597 41.0753083,14.0768803 C40.6308102,13.105659 41.057896,11.9581378 42.0293591,11.5143652" id="Fill-15" fill="#EBF4F6"></path>
            <path d="M2.74060459,17.3729141 C1.73987908,17.0002418 1.23056832,15.8870617 1.60348247,14.8858525 C1.97615478,13.8856106 3.08933495,13.3765417 4.09006046,13.7489722 C5.09078597,14.1216445 5.59961306,15.2353083 5.22742443,16.2353083 C4.85451028,17.2365175 3.74108827,17.7455865 2.74060459,17.3729141" id="Fill-17" fill="#EBF4F6"></path>
            <path d="M10.7181862,19.996058 L10.7118984,20.0132285 C12.2983555,19.1895284 13.0804595,20.1193954 13.7343894,21.3992019 L13.7360822,21.3938815 C14.0158888,21.9675212 14.5031923,22.4407981 15.148416,22.681185 C16.482636,23.1776784 17.9672793,22.499081 18.4637727,21.1648609 C18.9607497,19.8306409 18.2816687,18.3462394 16.9479323,17.8495042 C16.3024667,17.6091173 15.6241112,17.6487787 15.0374123,17.8995647 L15.0395889,17.8944861 C13.7075453,18.4345103 12.5077872,18.6270133 11.8466022,16.9660701 L11.8405562,16.9829988 C11.6023458,16.2678839 11.0657074,15.6589359 10.3044015,15.3755018 C8.97018138,14.8785248 7.48602177,15.557364 6.98904474,16.891584 C6.49182588,18.2255623 7.17090689,19.7102056 8.50512696,20.2071826 C9.26619105,20.4903748 10.0705441,20.3815478 10.7181862,19.996058" id="Fill-19" fill="#3975A1"></path>
            <path d="M42.0253446,27.8762031 C43.0260701,28.2488755 43.5348972,29.3625393 43.1624667,30.3627811 C42.7897944,31.3637485 41.6763724,31.8730593 40.6756469,31.5003869 C39.6751632,31.1277146 39.1658525,30.0140508 39.5387666,29.0130834 C39.9111971,28.0128416 41.0246191,27.5035308 42.0253446,27.8762031" id="Fill-21" fill="#EBF4F6"></path>
            <path d="M34.0475212,25.2529625 L34.0535671,25.2362757 C32.4673519,26.0599758 31.6854897,25.1296252 31.031318,23.8498186 L31.0296252,23.8551391 C30.7498186,23.2817412 30.2629988,22.8082225 29.6177751,22.5678356 C28.2833132,22.0711004 26.7989117,22.7496977 26.3021765,24.0836759 C25.8051995,25.417896 26.4840387,26.9022975 27.8182588,27.3992745 C28.4637243,27.6396614 29.1415961,27.6002418 29.728295,27.3494559 L29.7263603,27.3545345 C31.0584039,26.8147521 32.2576784,26.6227328 32.9191052,28.2834341 L32.925393,28.2660218 C33.1631197,28.9816203 33.7004837,29.5900846 34.4615478,29.8732769 C35.7957678,30.3700121 37.2801693,29.6911729 37.7771463,28.3571947 C38.2738815,27.0229746 37.5948005,25.5385732 36.2608222,25.041838 C35.5,24.7584039 34.6951632,24.8677146 34.0475212,25.2529625" id="Fill-23" fill="#3975A1"></path>
            <path d="M17.1313906,42.2669891 C16.7587183,43.2674728 15.6450544,43.7767836 14.6448126,43.4041112 C13.6440871,43.0316808 13.1347763,41.9182588 13.5074486,40.9177751 C13.8801209,39.9168077 14.9935429,39.407497 15.9942684,39.7801693 C16.994994,40.1528416 17.503821,41.2665054 17.1313906,42.2669891" id="Fill-25" fill="#EBF4F6"></path>
            <path d="M24.4760339,23.4037485 C24.0455623,24.5594921 22.759468,25.1474002 21.6037243,24.7171705 C20.4479807,24.2866989 19.8598307,23.0006046 20.2900605,21.8451028 C20.7210157,20.6891173 22.0066264,20.1012092 23.1626119,20.5316808 C24.3183555,20.9619105 24.9062636,22.2480048 24.4760339,23.4037485" id="Fill-27" fill="#D21832"></path>
            <path d="M19.7545103,34.2895284 L19.7711971,34.2955744 C18.9477388,32.7088755 19.8778476,31.9272551 21.157896,31.2730834 L21.1523337,31.2711487 C21.7257316,30.991584 22.1992503,30.5047642 22.4398791,29.8590568 C22.9363724,28.5250786 22.2577751,27.0406771 20.923555,26.5437001 C19.5890931,26.0469649 18.1049335,26.7258041 17.6079565,28.0600242 C17.3678114,28.7052479 17.4074728,29.3833615 17.6580169,29.9700605 L17.6529383,29.9678839 C18.1929625,31.2999274 18.3852237,32.4992019 16.7245224,33.1611125 L16.741451,33.1671584 C16.0263362,33.405127 15.4171463,33.9422491 15.1341959,34.7030713 C14.6372189,36.0372914 15.3158162,37.5221765 16.6500363,38.0186699 C17.9844982,38.5154051 19.4686578,37.8365659 19.9656348,36.5023458 C20.2493108,35.7415236 20.14,34.9371705 19.7545103,34.2895284" id="Fill-29" fill="#3975A1"></path>
            <path d="M27.6348005,2.98200726 C28.0074728,1.98152358 29.1208948,1.47221282 30.1213785,1.84488513 C31.122104,2.2173156 31.6309311,3.33097944 31.2585006,4.33170496 C30.8858283,5.33218863 29.7726481,5.8414994 28.7719226,5.46882709 C27.7711971,5.09615478 27.26237,3.98249093 27.6348005,2.98200726" id="Fill-31" fill="#EBF4F6"></path>
            <path d="M25.0116566,10.9597098 L24.9947279,10.9536638 C25.8181862,12.5398791 24.8880774,13.3217412 23.6082709,13.9759129 L23.6138331,13.9778476 C23.0404353,14.2576542 22.5666747,14.744474 22.3262878,15.3899395 C21.8295526,16.7239178 22.5083918,18.2085611 23.8426119,18.7055381 C25.1765901,19.2022733 26.6612334,18.5231923 27.1582104,17.189214 C27.3983555,16.5439903 27.3586941,15.8658767 27.1079081,15.2789359 L27.1129867,15.2811125 C26.5729625,13.9493108 26.3809432,12.7495526 28.0414027,12.0881258 L28.0247158,12.081838 C28.7398307,11.8441112 29.3487787,11.3069891 29.631971,10.5461669 C30.128948,9.21170496 29.4501088,7.72730351 28.1158888,7.23056832 C26.7816687,6.73334946 25.2972672,7.41243047 24.800532,8.74640871 C24.5168561,9.50771463 24.6261669,10.3120677 25.0116566,10.9597098" id="Fill-33" fill="#3975A1"></path>
            <mask id="mask-6" fill="white">
                <use xlink:href="#path-5"></use>
            </mask>
            <g id="Clip-36"></g>
            <polygon id="Fill-35" fill="#EBF4F6" mask="url(#mask-6)" points="26.9569528 51.5211608 30.0043531 51.5211608 30.0043531 34.7615478 26.9569528 34.7615478"></polygon>
            <path d="M41.907497,45.18474 C41.907497,43.9274244 41.637364,42.9322612 41.0970979,42.1980411 C40.5568319,41.4645466 39.8032648,41.098162 38.8359129,41.098162 C37.8685611,41.098162 37.1147521,41.4645466 36.5747279,42.1980411 C36.0344619,42.9322612 35.7648126,43.9274244 35.7648126,45.18474 C35.7648126,46.4587424 36.0344619,47.4667231 36.5747279,48.2077146 C37.1147521,48.9496735 37.8685611,49.320653 38.8359129,49.320653 C39.8032648,49.320653 40.5568319,48.9496735 41.0970979,48.2077146 C41.637364,47.4667231 41.907497,46.4587424 41.907497,45.18474 M44.9060459,45.18474 C44.9060459,46.18474 44.7609432,47.09526 44.4709794,47.9177509 C44.180532,48.74 43.7694075,49.4415719 43.2376058,50.0214994 C42.7053204,50.6019105 42.0644498,51.0536638 41.3147521,51.3762757 C40.5650544,51.6984039 39.7386941,51.8599516 38.8359129,51.8599516 C37.9326481,51.8599516 37.1106409,51.6984039 36.3694075,51.3762757 C35.6274486,51.0536638 34.9906892,50.6019105 34.4586457,50.0214994 C33.926844,49.4415719 33.5113664,48.74 33.2131802,47.9177509 C32.9145103,47.09526 32.7657799,46.18474 32.7657799,45.18474 C32.7657799,44.1852237 32.9145103,43.2783313 33.2131802,42.4640629 C33.5113664,41.6502781 33.9307134,40.9525756 34.4709794,40.3726481 C35.0107618,39.7919952 35.6518742,39.3448368 36.3933495,39.0302056 C37.1350665,38.7155744 37.9493349,38.5588634 38.8359129,38.5588634 C39.7224909,38.5588634 40.5411125,38.7155744 41.2905683,39.0302056 C42.040266,39.3448368 42.6811366,39.7919952 43.2131802,40.3726481 C43.7454655,40.9525756 44.1599758,41.6502781 44.4586457,42.4640629 C44.7568319,43.2783313 44.9060459,44.1852237 44.9060459,45.18474" id="Fill-37" fill="#EBF4F6" mask="url(#mask-6)"></path>
            <polygon id="Fill-38" fill="#EBF4F6" mask="url(#mask-6)" points="56.9156227 34.7616203 56.9156227 37.3976542 51.764474 37.3976542 51.764474 51.5212334 48.6931318 51.5212334 48.6931318 37.3976542 43.5419831 37.3976542 43.5419831 34.7616203"></polygon>
            <path d="M31.5278356,60.2273519 C30.9150181,60.2273519 30.3791052,60.2476663 29.9196131,60.2878114 C29.4601209,60.3279565 29.0768077,60.3642322 28.7708827,60.3963966 L28.7708827,67.5306167 L31.0441596,67.5306167 C31.801838,67.5306167 32.5193712,67.494341 33.1965175,67.4220314 C33.8736638,67.3492382 34.4620556,67.1881741 34.9619347,66.9383555 C35.4615719,66.6885369 35.8567352,66.3298912 36.1469407,65.8619347 C36.4373881,65.3947037 36.5822491,64.7579444 36.5822491,63.9516566 C36.5822491,63.2101814 36.4373881,62.5971221 36.1469407,62.1134462 C35.8567352,61.6297703 35.4777751,61.2471826 35.0103023,60.9647158 C34.5425877,60.6832164 34.0066747,60.4895042 33.4020798,60.3845466 C32.7974849,60.2798307 32.1725756,60.2273519 31.5278356,60.2273519 M38.2992987,63.9758404 C38.2992987,65.233156 37.9687062,66.2246917 37.307763,66.9502056 C36.646578,67.6757195 35.7759613,68.2000242 34.6959129,68.5221524 C34.9537122,68.8452479 35.2886578,69.2803144 35.6995405,69.8280774 C36.1106651,70.3765659 36.5338815,70.9768077 36.9691898,71.6300121 C37.40474,72.2829746 37.831584,72.9639903 38.2511729,73.6735429 C38.6700363,74.3828537 39.0248126,75.0602418 39.3150181,75.7049819 L37.549601,75.7049819 C37.2110278,75.0602418 36.8439178,74.4150181 36.4492382,73.7702781 C36.054075,73.1255381 35.6514148,72.5006288 35.2400484,71.8960339 C34.8289238,71.2914389 34.4298912,70.7313422 34.0429504,70.2150181 C33.6562515,69.6991778 33.3174365,69.2476663 33.027231,68.8607255 C32.5111487,68.9093349 31.9955502,68.9335187 31.4797098,68.9335187 L28.7708827,68.9335187 L28.7708827,75.7049819 L27.1266264,75.7049819 L27.1266264,59.26 C27.7067956,59.0989359 28.3878114,58.9818863 29.1699154,58.9090931 C29.9515357,58.8367836 30.6731802,58.8005079 31.3343652,58.8005079 C33.6395647,58.8005079 35.3769287,59.2358162 36.5459734,60.1064329 C37.7147763,60.9770496 38.2992987,62.2670133 38.2992987,63.9758404" id="Fill-39" fill="#EBF4F6" mask="url(#mask-6)"></path>
            <path d="M45.45052,74.5680532 C46.0628537,74.5680532 46.5992503,74.5482225 47.0585006,74.5075937 C47.5182346,74.4679323 47.9088029,74.4149698 48.2316566,74.3508827 L48.2316566,69.948948 C48.0541475,69.8686578 47.7721644,69.7842563 47.3852237,69.6955018 C46.9980411,69.6065054 46.4659976,69.5622491 45.7888513,69.5622491 C45.4021524,69.5622491 44.9990085,69.5905441 44.5796614,69.6466505 C44.1603144,69.7034825 43.7733736,69.8244015 43.419081,70.0094075 C43.0643047,70.1951391 42.7740992,70.4493108 42.5484643,70.7714389 C42.3223458,71.0940508 42.2098912,71.5208948 42.2098912,72.053422 C42.2098912,72.5208948 42.2860701,72.9158162 42.4396372,73.2379444 C42.5927207,73.5610399 42.810133,73.8183555 43.0925998,74.0120677 C43.374341,74.2052963 43.7129141,74.3470133 44.1080774,74.4352842 C44.5029988,74.5240387 44.9506409,74.5680532 45.45052,74.5680532 M45.3051753,62.911705 C46.1276663,62.911705 46.8248851,63.0287545 47.3973156,63.2621282 C47.9692624,63.4964692 48.4328658,63.8185973 48.7878839,64.22948 C49.1424184,64.6408464 49.4002177,65.1288755 49.5617654,65.6928416 C49.7225877,66.2572914 49.8036034,66.869867 49.8036034,67.5305683 L49.8036034,75.4144861 C49.6420556,75.4630955 49.4081983,75.5155744 49.1022733,75.5716808 C48.7956227,75.6285127 48.4408464,75.6889722 48.0379444,75.7530593 C47.6348005,75.8173881 47.1876421,75.869867 46.6957437,75.9104958 C46.2038452,75.9506409 45.7000967,75.9709553 45.1842563,75.9709553 C44.5230713,75.9709553 43.914607,75.898162 43.3586215,75.7530593 C42.8023942,75.6081983 42.3187183,75.3786941 41.9075937,75.0640629 C41.4962273,74.7494317 41.1736155,74.3470133 40.9402418,73.854873 C40.7063845,73.3632164 40.5893349,72.7627328 40.5893349,72.053422 C40.5893349,71.3760339 40.7184764,70.7953809 40.9765175,70.311705 C41.234075,69.828029 41.5968319,69.4289964 42.0647884,69.1148489 C42.5322612,68.8002177 43.0882467,68.5707134 43.7332285,68.4258525 C44.3779686,68.280266 45.0792987,68.2079565 45.8374607,68.2079565 C46.0628537,68.2079565 46.3008222,68.2198065 46.5508827,68.244474 C46.8004595,68.268416 47.0422975,68.3010641 47.2763966,68.3407255 C47.5100121,68.3813543 47.711705,68.4219831 47.8809915,68.4616445 C48.0502781,68.5022733 48.166844,68.538549 48.2316566,68.5707134 L48.2316566,67.7965901 C48.2316566,67.3615236 48.1990085,66.9383071 48.1349214,66.5269407 C48.0701088,66.116058 47.9293591,65.7453204 47.711705,65.4144861 C47.4938089,65.0843773 47.1876421,64.8185973 46.7927207,64.6169045 C46.3973156,64.4152116 45.8776058,64.314607 45.2328658,64.314607 C44.3138815,64.314607 43.6282709,64.3786941 43.177243,64.5075937 C42.7254897,64.6372189 42.3948972,64.741451 42.1857074,64.8222249 L41.9680532,63.4435067 C42.2418138,63.3150907 42.6650302,63.1941717 43.2377025,63.0807497 C43.8096493,62.968295 44.4988875,62.911705 45.3051753,62.911705" id="Fill-40" fill="#EBF4F6" mask="url(#mask-6)"></path>
            <path d="M54.1715599,73.4556953 C54.3166626,73.5686336 54.4980411,73.6895526 54.7156953,73.8184522 C54.9333495,73.9478356 55.1870375,74.0687545 55.4774849,74.1812092 C55.7676904,74.2941475 56.0820798,74.3867715 56.420653,74.4593229 C56.7589843,74.5321161 57.1137606,74.5681499 57.4844982,74.5681499 C58.2586215,74.5681499 58.907231,74.4353809 59.4315357,74.1693591 C59.9553567,73.9030955 60.3785732,73.5403386 60.701185,73.0810883 C61.0233132,72.6215961 61.2574123,72.0815719 61.4025151,71.460532 C61.5476179,70.8404595 61.6201693,70.1829021 61.6201693,69.4895526 C61.6201693,67.8452963 61.2090447,66.5836276 60.3865538,65.7050302 C59.5645466,64.8264329 58.4762757,64.3867715 57.1217412,64.3867715 C56.3481016,64.3867715 55.7231923,64.4230472 55.247497,64.4958404 C54.7718017,64.5681499 54.4133978,64.6450544 54.1715599,64.7253446 L54.1715599,73.4556953 Z M54.1715599,80.1790326 L52.5996131,80.1790326 L52.5996131,63.6370738 C53.0670859,63.4760097 53.6637001,63.3226844 54.389214,63.1775816 C55.1147279,63.0324788 56.0334704,62.9599274 57.1461669,62.9599274 C58.0651511,62.9599274 58.8994921,63.1091415 59.6491898,63.4075695 C60.3988875,63.7062394 61.0436276,64.1369528 61.5838936,64.7014027 C62.1239178,65.2658525 62.5427811,65.9507376 62.841451,66.7570254 C63.1393954,67.5633132 63.2886094,68.4738331 63.2886094,69.4895526 C63.2886094,70.441185 63.163821,71.3154293 62.9140024,72.1137364 C62.6637001,72.9115599 62.2973156,73.5969287 61.8136397,74.1693591 C61.3299637,74.7417896 60.7374607,75.1891898 60.0361306,75.511318 C59.3348005,75.8339299 58.5326239,75.994994 57.6298428,75.994994 C56.8075937,75.994994 56.0939299,75.8779444 55.4893349,75.6445707 C54.88474,75.4107134 54.4455623,75.1891898 54.1715599,74.9795163 L54.1715599,80.1790326 Z" id="Fill-41" fill="#EBF4F6" mask="url(#mask-6)"></path>
            <path d="M66.0527207,75.7049577 L67.6246675,75.7049577 L67.6246675,63.2016929 L66.0527207,63.2016929 L66.0527207,75.7049577 Z M67.9874244,59.4290206 C67.9874244,59.8002418 67.8744861,60.094075 67.6488513,60.311971 C67.4229746,60.5296252 67.1489722,60.6382104 66.8266022,60.6382104 C66.5039903,60.6382104 66.2299879,60.5296252 66.0043531,60.311971 C65.7784764,60.094075 65.6660218,59.8002418 65.6660218,59.4290206 C65.6660218,59.058283 65.7784764,58.7639661 66.0043531,58.546312 C66.2299879,58.3288996 66.5039903,58.2198307 66.8266022,58.2198307 C67.1489722,58.2198307 67.4229746,58.3288996 67.6488513,58.546312 C67.8744861,58.7639661 67.9874244,59.058283 67.9874244,59.4290206 Z" id="Fill-42" fill="#EBF4F6" mask="url(#mask-6)"></path>
            <path d="M79.5064571,65.4750423 C79.3611125,65.3625877 79.179734,65.2416687 78.9623216,65.1122854 C78.7446675,64.9833857 78.4904958,64.8624667 78.200532,64.7495284 C77.9100846,64.6370738 77.5959371,64.5439661 77.2571221,64.4714148 C76.918549,64.3991052 76.5637727,64.3625877 76.1930351,64.3625877 C75.4193954,64.3625877 74.7700605,64.4997098 74.2464813,64.7737122 C73.7221765,65.0479565 73.2989601,65.4145828 72.9768319,65.874075 C72.6539782,66.3338089 72.4203628,66.874075 72.2755018,67.4943894 C72.130399,68.1154293 72.0576058,68.772503 72.0576058,69.4653688 C72.0576058,71.1101088 72.4687304,72.3717775 73.2909794,73.250133 C74.1132285,74.129214 75.2014994,74.5681499 76.555792,74.5681499 C77.3299154,74.5681499 77.954341,74.5321161 78.4300363,74.4593229 C78.9057316,74.3867715 79.2646191,74.3105925 79.5064571,74.2298186 L79.5064571,65.4750423 Z M81.0784039,75.3180895 C80.6102056,75.4791536 80.0143168,75.632237 79.2888029,75.7773398 C78.563289,75.9226844 77.6440629,75.994994 76.5316082,75.994994 C75.6126239,75.994994 74.778283,75.8457799 74.0288271,75.5475937 C73.2791294,75.2496493 72.6339057,74.8184522 72.0941233,74.2540024 C71.5536155,73.6895526 71.1347521,73.0046675 70.8363241,72.1983797 C70.537896,71.3920919 70.3889238,70.4813301 70.3889238,69.4653688 C70.3889238,68.5144619 70.5134704,67.639734 70.7640145,66.8414268 C71.0138331,66.0433615 71.3804595,65.3541233 71.8641354,64.7737122 C72.3478114,64.1935429 72.9405562,63.7420314 73.6418863,63.4194196 C74.3429746,63.0972914 75.1449093,62.9357437 76.0479323,62.9357437 C76.8704232,62.9357437 77.5836034,63.0527932 78.1881983,63.2866505 C78.7927932,63.5205079 79.231971,63.7420314 79.5064571,63.951705 L79.5064571,57.2283676 L81.0784039,56.9384039 L81.0784039,75.3180895 Z" id="Fill-43" fill="#EBF4F6" mask="url(#mask-6)"></path>
            <polygon id="Fill-44" fill="#EBF4F6" mask="url(#mask-6)" points="83.9001209 69.4652963 89.3659008 69.4652963 89.3659008 67.9419589 83.9001209 67.9419589"></polygon>
            <path d="M96.8143894,60.2273519 C96.2013301,60.2273519 95.6813785,60.2476663 95.2545345,60.2878114 C94.8272068,60.3279565 94.4603386,60.3642322 94.1541717,60.3963966 L94.1541717,67.7966385 L96.2339782,67.7966385 C97.1205562,67.7966385 97.9224909,67.7446433 98.640266,67.6396856 C99.3575574,67.5349698 99.9703748,67.3412576 100.478235,67.0592745 C100.986094,66.7772914 101.376663,66.3862394 101.651149,65.8863603 C101.925151,65.3867231 102.062031,64.74948 102.062031,63.9758404 C102.062031,63.2343652 101.912817,62.6215478 101.614873,62.1378718 C101.316203,61.6541959 100.921282,61.2711245 100.429625,60.9891415 C99.9379686,60.7071584 99.3778718,60.5093349 98.7490931,60.3963966 C98.1203144,60.283942 97.4750907,60.2273519 96.8143894,60.2273519 M96.7415961,58.8005079 C99.1118501,58.8005079 100.877267,59.2520193 102.038089,60.1545586 C103.198912,61.0578235 103.779323,62.3395647 103.779323,64.0000242 C103.779323,64.9511729 103.610036,65.7618138 103.271221,66.4304958 C102.93289,67.0994196 102.449214,67.6396856 101.820193,68.0508102 C101.191657,68.4616929 100.421644,68.7601209 99.5108827,68.9453688 C98.5998791,69.1308585 97.5720677,69.2234825 96.4274486,69.2234825 L94.1541717,69.2234825 L94.1541717,75.7049819 L92.5094317,75.7049819 L92.5094317,59.26 C93.0900846,59.0989359 93.7711004,58.9818863 94.5532044,58.9090931 C95.3350665,58.8367836 96.0646917,58.8005079 96.7415961,58.8005079" id="Fill-45" fill="#EBF4F6" mask="url(#mask-6)"></path>
            <path d="M110.412817,62.9598307 C110.928658,62.9598307 111.416203,63.0004595 111.875937,63.0807497 C112.335429,63.1620073 112.653688,63.2422975 112.831197,63.3225877 L112.516808,64.677364 C112.387424,64.6130351 112.125756,64.5441112 111.730834,64.471318 C111.335429,64.3990085 110.815478,64.3627328 110.170979,64.3627328 C109.493833,64.3627328 108.949698,64.4108585 108.538573,64.5075937 C108.127449,64.6045707 107.857316,64.6853446 107.728174,64.7494317 L107.728174,75.7049335 L106.156227,75.7049335 L106.156227,63.7820798 C106.559129,63.6050544 107.115357,63.4236759 107.825151,63.2379444 C108.53422,63.0529383 109.397098,62.9598307 110.412817,62.9598307" id="Fill-46" fill="#EBF4F6" mask="url(#mask-6)"></path>
            <path d="M123.387279,69.4653688 C123.387279,67.9018863 123.024522,66.6564208 122.299008,65.729214 C121.573495,64.8020073 120.58994,64.3386457 119.348585,64.3386457 C118.106989,64.3386457 117.123676,64.8020073 116.398162,65.729214 C115.672648,66.6564208 115.309891,67.9018863 115.309891,69.4653688 C115.309891,71.0293349 115.672648,72.2706892 116.398162,73.1896735 C117.123676,74.1088996 118.106989,74.5681499 119.348585,74.5681499 C120.58994,74.5681499 121.573495,74.1088996 122.299008,73.1896735 C123.024522,72.2706892 123.387279,71.0293349 123.387279,69.4653688 M125.055961,69.4653688 C125.055961,70.4491657 124.914486,71.3439661 124.632745,72.1497703 C124.350278,72.9565417 123.955599,73.6414268 123.447739,74.205393 C122.939879,74.7703265 122.339154,75.2090206 121.646046,75.5236518 C120.952696,75.8377993 120.186796,75.994994 119.348585,75.994994 C118.509891,75.994994 117.744232,75.8377993 117.051125,75.5236518 C116.357775,75.2090206 115.75705,74.7703265 115.249432,74.205393 C114.741572,73.6414268 114.346167,72.9565417 114.064184,72.1497703 C113.782201,71.3439661 113.640967,70.4491657 113.640967,69.4653688 C113.640967,68.4825393 113.782201,67.5872551 114.064184,66.7809674 C114.346167,65.9751632 114.741572,65.2856832 115.249432,64.7132527 C115.75705,64.1410641 116.357775,63.6975333 117.051125,63.3831439 C117.744232,63.0689964 118.509891,62.9115599 119.348585,62.9115599 C120.186796,62.9115599 120.952696,63.0689964 121.646046,63.3831439 C122.339154,63.6975333 122.939879,64.1410641 123.447739,64.7132527 C123.955599,65.2856832 124.350278,65.9751632 124.632745,66.7809674 C124.914486,67.5872551 125.055961,68.4825393 125.055961,69.4653688" id="Fill-47" fill="#EBF4F6" mask="url(#mask-6)"></path>
            <path d="M129.336179,63.2016687 L134.318041,63.2016687 L134.318041,64.5317775 L129.336179,64.5317775 L129.336179,71.1823216 C129.336179,71.8923579 129.396638,72.468416 129.517557,72.9114631 C129.638476,73.354994 129.811632,73.6974365 130.037267,73.9392745 C130.263144,74.1811125 130.537146,74.3426602 130.859758,74.4229504 C131.182128,74.5037243 131.536904,74.5438694 131.923845,74.5438694 C132.584788,74.5438694 133.116832,74.4679323 133.519976,74.3143652 C133.922878,74.1612817 134.237267,74.0200484 134.463144,73.8911487 L134.850085,75.1973156 C134.623966,75.3421765 134.229045,75.5075937 133.664837,75.6925998 C133.100387,75.8778476 132.487811,75.9709553 131.82711,75.9709553 C131.053229,75.9709553 130.403894,75.869867 129.880314,75.6686578 C129.356252,75.4674486 128.937146,75.1607981 128.622757,74.7494317 C128.308368,74.338549 128.086602,73.8270617 127.957703,73.2137606 C127.828561,72.601185 127.764232,71.8756711 127.764232,71.0372189 L127.764232,59.5259734 L129.336179,59.2360097 L129.336179,63.2016687 Z" id="Fill-48" fill="#EBF4F6" mask="url(#mask-6)"></path>
            <path d="M145.497993,69.4653688 C145.497993,67.9018863 145.135236,66.6564208 144.409722,65.729214 C143.684208,64.8020073 142.700653,64.3386457 141.459299,64.3386457 C140.217703,64.3386457 139.234389,64.8020073 138.508875,65.729214 C137.783362,66.6564208 137.420605,67.9018863 137.420605,69.4653688 C137.420605,71.0293349 137.783362,72.2706892 138.508875,73.1896735 C139.234389,74.1088996 140.217703,74.5681499 141.459299,74.5681499 C142.700653,74.5681499 143.684208,74.1088996 144.409722,73.1896735 C145.135236,72.2706892 145.497993,71.0293349 145.497993,69.4653688 M147.166675,69.4653688 C147.166675,70.4491657 147.0252,71.3439661 146.743458,72.1497703 C146.460992,72.9565417 146.066312,73.6414268 145.558452,74.205393 C145.050593,74.7703265 144.449867,75.2090206 143.756759,75.5236518 C143.06341,75.8377993 142.297509,75.994994 141.459299,75.994994 C140.620605,75.994994 139.854946,75.8377993 139.161838,75.5236518 C138.468489,75.2090206 137.867763,74.7703265 137.360145,74.205393 C136.852285,73.6414268 136.45688,72.9565417 136.174897,72.1497703 C135.892914,71.3439661 135.751681,70.4491657 135.751681,69.4653688 C135.751681,68.4825393 135.892914,67.5872551 136.174897,66.7809674 C136.45688,65.9751632 136.852285,65.2856832 137.360145,64.7132527 C137.867763,64.1410641 138.468489,63.6975333 139.161838,63.3831439 C139.854946,63.0689964 140.620605,62.9115599 141.459299,62.9115599 C142.297509,62.9115599 143.06341,63.0689964 143.756759,63.3831439 C144.449867,63.6975333 145.050593,64.1410641 145.558452,64.7132527 C146.066312,65.2856832 146.460992,65.9751632 146.743458,66.7809674 C147.0252,67.5872551 147.166675,68.4825393 147.166675,69.4653688" id="Fill-49" fill="#EBF4F6" mask="url(#mask-6)"></path>
            <polygon id="Fill-50" fill="#EBF4F6" mask="url(#mask-6)" points="165.47347 74.2780411 165.47347 75.7048851 155.945054 75.7048851 155.945054 58.9455139 157.589311 58.9455139 157.589311 74.2780411"></polygon>
            <path d="M171.877219,74.5680532 C172.489553,74.5680532 173.025949,74.5482225 173.4852,74.5075937 C173.944933,74.4679323 174.335502,74.4149698 174.658356,74.3508827 L174.658356,69.948948 C174.480846,69.8686578 174.198863,69.7842563 173.811923,69.6955018 C173.42474,69.6065054 172.892696,69.5622491 172.21555,69.5622491 C171.828851,69.5622491 171.425707,69.5905441 171.00636,69.6466505 C170.587013,69.7034825 170.200073,69.8244015 169.84578,70.0094075 C169.491004,70.1951391 169.200798,70.4493108 168.975163,70.7714389 C168.749045,71.0940508 168.63659,71.5208948 168.63659,72.053422 C168.63659,72.5208948 168.712769,72.9158162 168.866336,73.2379444 C169.01942,73.5610399 169.236832,73.8183555 169.519299,74.0120677 C169.80104,74.2052963 170.139613,74.3470133 170.534776,74.4352842 C170.929698,74.5240387 171.37734,74.5680532 171.877219,74.5680532 M171.731874,62.911705 C172.554365,62.911705 173.251584,63.0287545 173.824015,63.2621282 C174.395961,63.4964692 174.859565,63.8185973 175.214583,64.22948 C175.569117,64.6408464 175.826917,65.1288755 175.988464,65.6928416 C176.149287,66.2572914 176.230302,66.869867 176.230302,67.5305683 L176.230302,75.4144861 C176.068755,75.4630955 175.834897,75.5155744 175.528972,75.5716808 C175.222322,75.6285127 174.867545,75.6889722 174.464643,75.7530593 C174.061499,75.8173881 173.614341,75.869867 173.122443,75.9104958 C172.630544,75.9506409 172.126796,75.9709553 171.610955,75.9709553 C170.94977,75.9709553 170.341306,75.898162 169.78532,75.7530593 C169.229093,75.6081983 168.745417,75.3786941 168.334293,75.0640629 C167.922926,74.7494317 167.600314,74.3470133 167.366941,73.854873 C167.133083,73.3632164 167.016034,72.7627328 167.016034,72.053422 C167.016034,71.3760339 167.145175,70.7953809 167.403216,70.311705 C167.660774,69.828029 168.023531,69.4289964 168.491487,69.1148489 C168.95896,68.8002177 169.514946,68.5707134 170.159927,68.4258525 C170.804667,68.280266 171.505998,68.2079565 172.26416,68.2079565 C172.489553,68.2079565 172.727521,68.2198065 172.977582,68.244474 C173.227158,68.268416 173.468996,68.3010641 173.703096,68.3407255 C173.936711,68.3813543 174.138404,68.4219831 174.30769,68.4616445 C174.476977,68.5022733 174.593543,68.538549 174.658356,68.5707134 L174.658356,67.7965901 C174.658356,67.3615236 174.625707,66.9383071 174.56162,66.5269407 C174.496808,66.116058 174.356058,65.7453204 174.138404,65.4144861 C173.920508,65.0843773 173.614341,64.8185973 173.21942,64.6169045 C172.824015,64.4152116 172.304305,64.314607 171.659565,64.314607 C170.74058,64.314607 170.05497,64.3786941 169.603942,64.5075937 C169.152189,64.6372189 168.821596,64.741451 168.612406,64.8222249 L168.394752,63.4435067 C168.668513,63.3150907 169.091729,63.1941717 169.664401,63.0807497 C170.236348,62.968295 170.925586,62.911705 171.731874,62.911705" id="Fill-51" fill="#EBF4F6" mask="url(#mask-6)"></path>
            <path d="M180.706191,74.229867 C180.948029,74.3106409 181.306675,74.386578 181.78237,74.4593712 C182.257823,74.5321644 182.882733,74.5679565 183.656614,74.5679565 C185.011149,74.5679565 186.09942,74.1292624 186.921427,73.2501814 C187.743918,72.371584 188.155042,71.1101572 188.155042,69.4654172 C188.155042,68.7725514 188.082249,68.1154776 187.937146,67.4941959 C187.792285,66.8741233 187.558186,66.3338573 187.235816,65.8741233 C186.913204,65.4146312 186.489988,65.0480048 185.966167,64.7735187 C185.442104,64.4997582 184.793253,64.362636 184.019371,64.362636 C183.648392,64.362636 183.293857,64.3991536 182.955526,64.4712213 C182.616711,64.5440145 182.302563,64.6371221 182.012116,64.7495768 C181.721911,64.8625151 181.467981,64.9834341 181.250326,65.1123337 C181.032914,65.241717 180.851536,65.362636 180.706191,65.4750907 L180.706191,74.229867 Z M180.706191,63.9517533 C180.980193,63.7420798 181.419613,63.5205562 182.024208,63.2866989 C182.628803,63.0528416 183.342225,62.935792 184.164716,62.935792 C185.067255,62.935792 185.869674,63.0973398 186.570762,63.419468 C187.272092,63.7420798 187.864837,64.1935913 188.348513,64.7735187 C188.832189,65.3541717 189.198573,66.0431681 189.448634,66.8414752 C189.698694,67.6397823 189.823482,68.5145103 189.823482,69.4654172 C189.823482,70.4813785 189.674268,71.3921403 189.376324,72.1984281 C189.077654,73.0047158 188.658549,73.689601 188.118525,74.2540508 C187.578259,74.8185006 186.933519,75.2496977 186.183821,75.5476421 C185.434365,75.8458283 184.600024,75.9950423 183.68104,75.9950423 C182.568343,75.9950423 181.649359,75.9227328 180.923845,75.7771463 C180.198331,75.6322854 179.601959,75.4792019 179.134244,75.3181378 L179.134244,57.228416 L180.706191,56.9384522 L180.706191,63.9517533 Z" id="Fill-52" fill="#EBF4F6" mask="url(#mask-6)"></path>
            <path d="M195.252842,74.5926239 C196.155381,74.5926239 196.900967,74.4434099 197.489843,74.14474 C198.078235,73.8467956 198.37231,73.343289 198.37231,72.6332527 C198.37231,72.2951632 198.320073,72.0047158 198.215357,71.7628779 C198.110157,71.5210399 197.937243,71.3031439 197.695405,71.1101572 C197.453567,70.916445 197.134825,70.7311971 196.739903,70.553688 C196.344982,70.3764208 195.857437,70.1667473 195.277025,69.9249093 C194.809069,69.7311971 194.366022,69.534341 193.946917,69.3326481 C193.527328,69.1309553 193.156832,68.8970979 192.834462,68.631318 C192.511608,68.3652963 192.254051,68.0470375 192.06058,67.6755744 C191.86711,67.3053204 191.770375,66.8538089 191.770375,66.3215236 C191.770375,65.3060459 192.153204,64.483555 192.919105,63.8550181 C193.684764,63.2262394 194.736518,62.9116082 196.074849,62.9116082 C196.929504,62.9116082 197.634946,62.9844015 198.190931,63.1295042 C198.7474,63.2743652 199.137969,63.4037485 199.364087,63.5162031 L199.00133,64.9191052 C198.80786,64.82237 198.481378,64.6932285 198.021886,64.5316808 C197.562394,64.3711004 196.889117,64.2898428 196.002539,64.2898428 C195.647763,64.2898428 195.313301,64.326844 194.998912,64.3996372 C194.684281,64.471705 194.406409,64.585127 194.164571,64.7386941 C193.922733,64.8922612 193.729262,65.0857316 193.58416,65.3200726 C193.439057,65.5544135 193.366505,65.8409915 193.366505,66.1802902 C193.366505,66.519347 193.430834,66.8102781 193.559976,67.0525998 C193.688634,67.2954051 193.877993,67.5094317 194.128295,67.6951632 C194.378114,67.8811366 194.684281,68.0540508 195.047037,68.2141475 C195.409794,68.3747279 195.824788,68.5515115 196.292745,68.7440145 C196.776421,68.9367594 197.239782,69.1333736 197.683313,69.3340992 C198.126602,69.5348247 198.517654,69.776179 198.855985,70.058162 C199.1948,70.3401451 199.468803,70.6787183 199.678476,71.0736397 C199.887666,71.4690447 199.992866,71.9645707 199.992866,72.561185 C199.992866,73.689601 199.569649,74.5440145 198.723216,75.1244256 C197.876784,75.7050786 196.719589,75.9950423 195.252842,75.9950423 C194.156348,75.9950423 193.318138,75.9019347 192.737727,75.7166868 C192.157316,75.5316808 191.770375,75.3904474 191.576904,75.2934704 L191.988029,73.86711 C192.036397,73.8992745 192.141112,73.9517533 192.302418,74.023821 C192.463482,74.0966143 192.680895,74.1773881 192.955381,74.265659 C193.229383,74.3546554 193.555623,74.4315599 193.934825,74.4958888 C194.313301,74.5604595 194.752963,74.5926239 195.252842,74.5926239" id="Fill-53" fill="#EBF4F6" mask="url(#mask-6)"></path>
        </g>
    </g>
</svg>